<svg fill="white" width="95" height="20" viewBox="0 0 302 50">
              <path d="M10.0898,52.6289H0V2.2148H10.0898V22.3945H30.2344V2.2148h10.0898V52.6289h-10.0898v-20.1445H10.0898v20.1445Z"></path>
              <path d="M63.0703,43.418c.3745,.1172,.75,.1934,1.125,.2285,.3745,.0352,.75,.0527,1.125,.0527,.937,0,1.8398-.1289,2.707-.3867,.8667-.2578,1.6816-.627,2.4434-1.1074,.7612-.4805,1.4414-1.0664,2.0391-1.7578s1.084-1.459,1.459-2.3027l7.0312,7.0664c-.8911,1.2656-1.916,2.4023-3.0762,3.4102s-2.4141,1.8633-3.7617,2.5664c-1.3481,.7031-2.7656,1.2363-4.2539,1.5996-1.4888,.3633-3.0181,.5449-4.5879,.5449-2.6489,0-5.1387-.4922-7.4707-1.4766-2.3325-.9844-4.3716-2.3555-6.1172-4.1133-1.7461-1.7578-3.1235-3.8496-4.1309-6.2754-1.0078-2.4258-1.5117-5.0918-1.5117-7.998,0-2.9766,.5039-5.6953,1.5117-8.1562,1.0073-2.4609,2.3848-4.5586,4.1309-6.293,1.7456-1.7344,3.7847-3.082,6.1172-4.043,2.332-.9609,4.8218-1.4414,7.4707-1.4414,1.5698,0,3.1055,.1875,4.6055,.5625,1.4995,.375,2.9233,.9141,4.2715,1.6172,1.3477,.7031,2.6069,1.5645,3.7793,2.584,1.1719,1.0195,2.2026,2.1621,3.0938,3.4277l-18,21.6914Zm4.9219-19.793c-.4453-.1641-.8848-.2695-1.3184-.3164-.4341-.0469-.8848-.0703-1.3535-.0703-1.313,0-2.5488,.2402-3.709,.7207s-2.168,1.166-3.0234,2.0566c-.856,.8906-1.5293,1.9629-2.0215,3.2168s-.7383,2.666-.7383,4.2363c0,.3516,.0176,.75,.0527,1.1953s.0933,.8965,.1758,1.3535c.082,.457,.1812,.8965,.2988,1.3184,.1172,.4219,.269,.7969,.457,1.125l11.1797-14.8359Z"></path>
              <path d="M95.4844,52.6289h-9.5977V14.9766h2.3203l3.1641,4.4648c1.5469-1.4062,3.3047-2.4902,5.2734-3.252s4.0078-1.1426,6.1172-1.1426h8.4727v9.5625h-8.4727c-1.0078,0-1.957,.1875-2.8477,.5625-.8911,.375-1.6646,.8906-2.3203,1.5469-.6562,.6562-1.1724,1.4297-1.5469,2.3203-.375,.8906-.5625,1.8398-.5625,2.8477v20.7422Z"></path>
              <path d="M151.3828,33.4688c0,2.8125-.5044,5.4316-1.5117,7.8574-1.0078,2.4258-2.3789,4.5234-4.1133,6.293-1.7349,1.7695-3.7676,3.1641-6.0996,4.1836-2.3325,1.0195-4.834,1.5293-7.5059,1.5293-2.6489,0-5.1387-.5098-7.4707-1.5293-2.3325-1.0195-4.3716-2.4141-6.1172-4.1836-1.7461-1.7695-3.1235-3.8672-4.1309-6.293-1.0078-2.4258-1.5117-5.0449-1.5117-7.8574,0-2.8594,.5039-5.5078,1.5117-7.9453,1.0073-2.4375,2.3848-4.541,4.1309-6.3105,1.7456-1.7695,3.7847-3.1582,6.1172-4.166,2.332-1.0078,4.8218-1.5117,7.4707-1.5117,2.6719,0,5.1733,.4746,7.5059,1.4238,2.332,.9492,4.3647,2.2969,6.0996,4.043,1.7344,1.7461,3.1055,3.8438,4.1133,6.293,1.0073,2.4492,1.5117,5.1738,1.5117,8.1738Zm-9.668,0c0-1.5469-.252-2.9473-.7559-4.2012-.5044-1.2539-1.1899-2.332-2.0566-3.2344-.8672-.9023-1.8809-1.5938-3.041-2.0742s-2.3965-.7207-3.709-.7207-2.5488,.2402-3.709,.7207-2.168,1.1719-3.0234,2.0742c-.856,.9023-1.5293,1.9805-2.0215,3.2344s-.7383,2.6543-.7383,4.2012c0,1.4531,.2461,2.8008,.7383,4.043s1.1655,2.3203,2.0215,3.2344c.8555,.9141,1.8633,1.6348,3.0234,2.1621s2.396,.791,3.709,.791,2.5488-.2461,3.709-.7383,2.1738-1.1836,3.041-2.0742c.8667-.8906,1.5522-1.9688,2.0566-3.2344,.5039-1.2656,.7559-2.6602,.7559-4.1836Z"></path>
              <path d="M189.5977,22.4648l-7.0312,7.0664c-.3516-.9844-.832-1.8691-1.4414-2.6543-.6104-.7852-1.2959-1.4473-2.0566-1.9863-.7617-.5391-1.5879-.9492-2.4785-1.2305-.8916-.2812-1.8057-.4219-2.7422-.4219-1.3135,0-2.5488,.2695-3.709,.8086s-2.168,1.2949-3.0234,2.2676c-.8564,.9727-1.5293,2.127-2.0215,3.4629s-.7383,2.8125-.7383,4.4297c0,1.3125,.2461,2.543,.7383,3.6914s1.165,2.1562,2.0215,3.0234c.8555,.8672,1.8633,1.5469,3.0234,2.0391s2.3955,.7383,3.709,.7383c.9365,0,1.8398-.1289,2.707-.3867,.8662-.2578,1.6816-.627,2.4434-1.1074,.7607-.4805,1.4414-1.0664,2.0391-1.7578s1.084-1.459,1.459-2.3027l7.0312,7.0664c-.8916,1.2656-1.916,2.4023-3.0762,3.4102s-2.4141,1.8633-3.7617,2.5664c-1.3486,.7031-2.7656,1.2363-4.2539,1.5996-1.4893,.3633-3.0186,.5449-4.5879,.5449-2.6494,0-5.1387-.498-7.4707-1.4941-2.333-.9961-4.3721-2.3613-6.1172-4.0957-1.7461-1.7344-3.1235-3.7617-4.1309-6.082-1.0078-2.3203-1.5117-4.8047-1.5117-7.4531,0-2.8828,.5039-5.5781,1.5117-8.0859,1.0073-2.5078,2.3848-4.6934,4.1309-6.5566,1.7451-1.8633,3.7842-3.334,6.1172-4.4121,2.332-1.0781,4.8213-1.6172,7.4707-1.6172,1.5693,0,3.1113,.1992,4.623,.5977s2.9531,.9785,4.3242,1.7402,2.6367,1.6934,3.7969,2.7949,2.1621,2.3672,3.0059,3.7969Z"></path>
              <path d="M230.0977,33.4688c0,2.8125-.5049,5.4316-1.5117,7.8574-1.0078,2.4258-2.3789,4.5234-4.1133,6.293-1.7354,1.7695-3.7676,3.1641-6.0996,4.1836-2.333,1.0195-4.834,1.5293-7.5059,1.5293-2.6494,0-5.1387-.5098-7.4707-1.5293-2.333-1.0195-4.3721-2.4141-6.1172-4.1836-1.7461-1.7695-3.124-3.8672-4.1309-6.293-1.0078-2.4258-1.5117-5.0449-1.5117-7.8574,0-2.8594,.5039-5.5078,1.5117-7.9453,1.0068-2.4375,2.3848-4.541,4.1309-6.3105,1.7451-1.7695,3.7842-3.1582,6.1172-4.166,2.332-1.0078,4.8213-1.5117,7.4707-1.5117,2.6719,0,5.1729,.4746,7.5059,1.4238,2.332,.9492,4.3643,2.2969,6.0996,4.043,1.7344,1.7461,3.1055,3.8438,4.1133,6.293,1.0068,2.4492,1.5117,5.1738,1.5117,8.1738Zm-9.668,0c0-1.5469-.252-2.9473-.7559-4.2012-.5049-1.2539-1.1904-2.332-2.0566-3.2344-.8672-.9023-1.8809-1.5938-3.041-2.0742s-2.3965-.7207-3.709-.7207c-1.3135,0-2.5488,.2402-3.709,.7207s-2.168,1.1719-3.0234,2.0742c-.8564,.9023-1.5293,1.9805-2.0215,3.2344s-.7383,2.6543-.7383,4.2012c0,1.4531,.2461,2.8008,.7383,4.043s1.165,2.3203,2.0215,3.2344c.8555,.9141,1.8633,1.6348,3.0234,2.1621s2.3955,.791,3.709,.791c1.3125,0,2.5488-.2461,3.709-.7383s2.1738-1.1836,3.041-2.0742c.8662-.8906,1.5518-1.9688,2.0566-3.2344,.5039-1.2656,.7559-2.6602,.7559-4.1836Z"></path>
              <path d="M245.0039,52.6289h-9.5977V14.9766h2.3203l3.1641,4.4648c1.5469-1.4062,3.3047-2.4902,5.2734-3.252s4.0078-1.1426,6.1172-1.1426h8.4727v9.5625h-8.4727c-1.0078,0-1.957,.1875-2.8477,.5625s-1.6641,.8906-2.3203,1.5469-1.1719,1.4297-1.5469,2.3203-.5625,1.8398-.5625,2.8477v20.7422Z"></path>
              <path d="M300.9023,52.6289h-2.3203l-3.7266-5.168c-.9141,.8203-1.8809,1.5879-2.9004,2.3027s-2.0918,1.3359-3.2168,1.8633-2.2793,.9434-3.4629,1.248-2.3848,.457-3.6035,.457c-2.6484,0-5.1387-.498-7.4707-1.4941s-4.3711-2.3789-6.1172-4.1484-3.123-3.8672-4.1309-6.293-1.5117-5.0684-1.5117-7.9277c0-2.8359,.5039-5.4727,1.5117-7.9102s2.3848-4.5469,4.1309-6.3281,3.7852-3.1758,6.1172-4.1836,4.8223-1.5117,7.4707-1.5117c.8438,0,1.7168,.0703,2.6191,.2109s1.7812,.3691,2.6367,.6855,1.6582,.7324,2.4082,1.248,1.3828,1.1484,1.8984,1.8984V0h9.668V52.6289Zm-9.668-19.1602c0-1.3125-.252-2.584-.7559-3.8145s-1.1895-2.3203-2.0566-3.2695-1.8809-1.7109-3.041-2.2852-2.3965-.8613-3.709-.8613-2.5488,.2344-3.709,.7031-2.168,1.1426-3.0234,2.0215-1.5293,1.9512-2.0215,3.2168-.7383,2.6953-.7383,4.2891c0,1.3828,.2461,2.6953,.7383,3.9375s1.166,2.332,2.0215,3.2695,1.8633,1.6758,3.0234,2.2148,2.3965,.8086,3.709,.8086,2.5488-.2871,3.709-.8613,2.1738-1.3359,3.041-2.2852,1.5527-2.0391,2.0566-3.2695,.7559-2.502,.7559-3.8145Z"></path>
            </svg>